<svg id="Capa_1" enable-background="new 0 0 512 512" height="512" viewBox="0 0 512 512" width="512" xmlns="http://www.w3.org/2000/svg"><g><g id="Page-1_45_"><g id="_x30_46---Crop"><path id="Shape_233_" d="m477.867 375.467h-34.133v-273.067c0-18.851-15.282-34.133-34.133-34.133h-273.068v-34.134c0-18.851-15.282-34.133-34.133-34.133s-34.133 15.282-34.133 34.133v34.133h-34.134c-18.851.001-34.133 15.283-34.133 34.134s15.282 34.133 34.133 34.133h34.133v273.067c0 18.851 15.282 34.133 34.133 34.133h273.067v34.133c0 18.851 15.282 34.133 34.133 34.133s34.133-15.282 34.133-34.133v-34.133h34.133c18.851 0 34.133-15.282 34.133-34.133.002-18.851-15.28-34.133-34.131-34.133zm-443.734-256c-9.426 0-17.067-7.641-17.067-17.067s7.641-17.067 17.067-17.067h34.133v34.133h-34.133zm375.467-34.134c9.426 0 17.067 7.641 17.067 17.067v273.067h-34.133v-247.467c0-4.713-3.82-8.533-8.533-8.533h-247.468v-34.134zm-241.434 258.501c-3.332-3.331-8.734-3.331-12.066 0l-19.567 19.567v-226.868h226.867l-11.034 11.034c-2.218 2.143-3.108 5.315-2.327 8.299s3.111 5.313 6.094 6.094 6.156-.109 8.299-2.327l11.034-11.034v226.867h-226.867l19.567-19.567c3.332-3.331 3.332-8.733 0-12.065zm258.501 134.033c0 9.426-7.641 17.067-17.067 17.067s-17.067-7.641-17.067-17.067v-34.133h34.133v34.133zm51.2-51.2h-375.467c-9.426 0-17.067-7.641-17.067-17.067v-375.467c0-9.426 7.641-17.067 17.067-17.067s17.067 7.641 17.067 17.067v349.867c0 4.713 3.821 8.533 8.533 8.533h349.867c9.426 0 17.067 7.641 17.067 17.067-.001 9.426-7.642 17.067-17.067 17.067z"/><path id="Shape_232_" d="m187.733 332.8c2.263 0 4.433-.9 6.033-2.5l17.067-17.067c3.234-3.348 3.188-8.671-.104-11.962-3.292-3.292-8.614-3.338-11.962-.104l-17.067 17.067c-2.44 2.44-3.169 6.11-1.849 9.298 1.321 3.188 4.432 5.267 7.882 5.268z"/><path id="Shape_231_" d="m230.4 290.133c2.263 0 4.433-.9 6.033-2.5l17.067-17.067c3.234-3.348 3.188-8.671-.104-11.962-3.292-3.292-8.614-3.338-11.962-.104l-17.067 17.067c-2.44 2.44-3.169 6.11-1.849 9.298 1.32 3.189 4.431 5.268 7.882 5.268z"/><path id="Shape_230_" d="m273.067 247.467c2.263 0 4.433-.9 6.033-2.5l17.067-17.067c3.234-3.348 3.188-8.671-.104-11.962s-8.614-3.338-11.962-.104l-17.067 17.066c-2.44 2.441-3.169 6.11-1.849 9.298 1.32 3.189 4.431 5.268 7.882 5.269z"/><path id="Shape_229_" d="m315.733 204.8c2.263-.001 4.433-.9 6.033-2.5l17.067-17.067c3.234-3.348 3.188-8.671-.104-11.962-3.292-3.292-8.614-3.338-11.962-.104l-17.067 17.067c-2.44 2.441-3.169 6.11-1.849 9.298 1.321 3.188 4.432 5.267 7.882 5.268z"/><path id="Shape_228_" d="m449.766 74.3 17.067-17.067c2.218-2.142 3.108-5.315 2.327-8.299s-3.111-5.313-6.094-6.094-6.156.109-8.299 2.327l-17.067 17.067c-2.218 2.143-3.108 5.315-2.327 8.299s3.111 5.313 6.094 6.094c2.984.781 6.157-.109 8.299-2.327z"/><path id="Shape_227_" d="m497.434 2.5-17.067 17.067c-2.218 2.143-3.108 5.315-2.327 8.299s3.111 5.313 6.094 6.094 6.156-.109 8.299-2.327l17.067-17.067c3.234-3.348 3.188-8.671-.104-11.962-3.292-3.291-8.614-3.338-11.962-.104z"/></g></g></g></svg>