<svg id="Capa_1" enable-background="new 0 0 512 512" height="512" viewBox="0 0 512 512" width="512" xmlns="http://www.w3.org/2000/svg"><g><path d="m485.551 274.215-87.416-19.149c-6.96-1.528-12.444-7.012-13.972-13.969l-19.151-87.425c-3.329-15.151-15.941-25.667-31.369-26.166-13.85-.467-29.619 7.438-33.712 26.17l-19.148 87.417c-1.528 6.96-7.02 12.445-13.989 13.972l-87.422 19.15c-15.665 3.434-26.187 16.52-26.181 32.561.006 16.032 10.529 29.101 26.183 32.521l87.419 19.15c6.971 1.527 12.462 7.018 13.989 13.988l4.3 19.63c.886 4.046 4.888 6.612 8.931 5.722 4.047-.886 6.608-4.885 5.722-8.931l-4.3-19.63c-2.776-12.672-12.759-22.655-25.432-25.431l-87.424-19.151c-10.616-2.319-14.386-11.078-14.388-17.873-.003-6.803 3.766-15.574 14.392-17.903l87.421-19.15c12.669-2.776 22.651-12.749 25.431-25.411l19.15-87.424c2.404-11.002 11.484-14.626 18.561-14.385 6.843.221 14.959 4.119 17.216 14.389l19.151 87.423c2.778 12.656 12.751 22.629 25.41 25.408l87.42 19.15c10.638 2.331 14.409 11.101 14.407 17.903-.002 6.795-3.775 15.553-14.407 17.874l-87.424 19.15c-12.658 2.779-22.632 12.761-25.407 25.431l-19.15 87.421c-1.482 6.769-5.453 10.253-8.523 11.984-4.649 2.622-10.515 3.135-15.7 1.368-3.481-1.182-9.612-4.487-11.554-13.353l-8.43-38.49c-.886-4.046-4.886-6.612-8.931-5.722-4.046.886-6.608 4.884-5.722 8.931l8.43 38.489c2.569 11.733 10.364 20.608 21.377 24.345 3.573 1.218 7.342 1.818 11.103 1.818 5.872 0 11.727-1.463 16.794-4.321 8.112-4.574 13.727-12.331 15.809-21.841l19.15-87.42c1.527-6.97 7.012-12.461 13.968-13.989l87.415-19.148c15.667-3.42 26.197-16.49 26.203-32.522.005-16.042-10.524-29.128-26.2-32.561z"/><path d="m80.707 164.466c3.952.87 7.067 3.984 7.936 7.929l13.249 60.516c1.948 8.924 7.896 15.688 16.316 18.559 2.768.944 5.638 1.41 8.492 1.41 4.423 0 8.806-1.12 12.704-3.32 6.198-3.497 10.481-9.41 12.061-16.644l13.258-60.512c.765-3.472 3.197-6.281 6.507-7.516 3.881-1.448 5.854-5.767 4.406-9.648-1.448-3.882-5.771-5.854-9.648-4.406-8.1 3.021-14.049 9.878-15.915 18.352l-13.261 60.526c-.676 3.094-2.283 5.376-4.777 6.784-2.655 1.499-6.015 1.79-8.986.776-2.391-.815-5.46-2.788-6.503-7.565l-13.251-60.527c-2.121-9.642-9.722-17.243-19.371-19.365l-60.521-13.25c-6.008-1.315-8.15-6.093-8.151-10.126-.001-4.037 2.141-8.821 8.153-10.141l60.525-13.261c9.642-2.121 17.242-9.712 19.365-19.351l13.25-60.529c1.365-6.233 6.537-8.275 10.522-8.149 3.874.13 8.468 2.34 9.745 8.149l13.262 60.539c2.121 9.628 9.713 17.22 19.35 19.343l60.527 13.259c6.02 1.32 8.163 6.104 8.162 10.141-.002 4.033-2.146 8.811-8.159 10.126l-33.709 7.38c-4.047.886-6.608 4.884-5.723 8.931s4.883 6.608 8.93 5.723l33.708-7.38c11.932-2.61 19.949-12.567 19.953-24.776.003-12.214-8.014-22.179-19.951-24.797l-60.521-13.258c-3.942-.868-7.051-3.976-7.917-7.91l-13.261-60.535c-2.533-11.525-12.136-19.532-23.89-19.925-12.451-.428-23.019 7.771-25.682 19.931l-13.247 60.519c-.868 3.94-3.983 7.049-7.932 7.917l-60.521 13.26c-11.931 2.618-19.943 12.583-19.94 24.796.003 12.208 8.019 22.165 19.943 24.776z"/><path d="m195.029 388.193-33.592-7.357c-.924-.204-1.653-.933-1.855-1.849l-7.36-33.604c-1.739-7.921-8.339-13.419-16.409-13.681-8.572-.297-15.801 5.336-17.626 13.685l-7.357 33.591c-.204.925-.935 1.654-1.857 1.857l-33.603 7.359c-8.191 1.797-13.693 8.64-13.69 17.027.003 8.384 5.507 15.219 13.693 17.009l33.595 7.358c.927.204 1.657.935 1.86 1.856l7.358 33.596c1.317 6.036 5.521 10.802 11.24 12.746 1.886.642 3.842.959 5.788.959 3.024 0 6.024-.767 8.693-2.272 4.278-2.414 7.231-6.473 8.315-11.429l7.358-33.594c.204-.928.933-1.659 1.849-1.861l33.596-7.358c8.193-1.79 13.7-8.625 13.703-17.01.003-8.389-5.502-15.231-13.699-17.028zm-3.205 19.383c-.001 0-.003 0-.004.001l-33.607 7.361c-6.613 1.456-11.827 6.673-13.283 13.297l-7.36 33.602c-.219 1-.666 1.365-1.031 1.571-.641.36-1.532.432-2.28.178-.774-.264-1.212-.802-1.419-1.75l-7.36-33.606c-1.456-6.62-6.674-11.837-13.298-13.292l-33.603-7.36c-1.26-.275-1.899-1.07-1.899-2.361-.001-1.295.641-2.093 1.902-2.37l33.604-7.36c6.617-1.454 11.835-6.667 13.294-13.29l7.36-33.602c.34-1.556 1.431-1.903 2.347-1.903.043 0 .085.001.127.002 1.229.04 1.988.681 2.257 1.902l7.361 33.609c1.457 6.612 6.67 11.825 13.289 13.282l33.599 7.359c1.268.278 1.91 1.075 1.909 2.37-.001 1.29-.641 2.084-1.905 2.36z"/><path d="m389.894 103.385h11.227v11.226c0 4.142 3.357 7.5 7.5 7.5s7.5-3.358 7.5-7.5v-11.226h11.226c4.143 0 7.5-3.358 7.5-7.5s-3.357-7.5-7.5-7.5h-11.226v-11.226c0-4.142-3.357-7.5-7.5-7.5s-7.5 3.358-7.5 7.5v11.226h-11.227c-4.143 0-7.5 3.358-7.5 7.5s3.358 7.5 7.5 7.5z"/><path d="m254.633 478.274h-11.226v-11.226c0-4.142-3.357-7.5-7.5-7.5s-7.5 3.358-7.5 7.5v11.226h-11.227c-4.143 0-7.5 3.358-7.5 7.5s3.357 7.5 7.5 7.5h11.227v11.226c0 4.142 3.357 7.5 7.5 7.5s7.5-3.358 7.5-7.5v-11.226h11.226c4.143 0 7.5-3.358 7.5-7.5s-3.358-7.5-7.5-7.5z"/><path d="m68.026 274.726c0-4.142-3.357-7.5-7.5-7.5h-11.226v-11.226c0-4.142-3.357-7.5-7.5-7.5s-7.5 3.358-7.5 7.5v11.226h-11.226c-4.143 0-7.5 3.358-7.5 7.5s3.357 7.5 7.5 7.5h11.226v11.226c0 4.142 3.357 7.5 7.5 7.5s7.5-3.358 7.5-7.5v-11.226h11.226c4.143 0 7.5-3.357 7.5-7.5z"/></g></svg>