<svg height="512" viewBox="0 0 512 512" width="512" xmlns="http://www.w3.org/2000/svg"><g id="Flat"><g fill="#0093b9"><path d="m224 16v40h-32v24l64 56 64-56v-24h-32v-40z"/><path d="m392 16v40h-32v24l64 56 64-56v-24h-32v-40z"/><path d="m56 16v288h-32v24l64 56 64-56v-24h-32v-288z"/></g><path d="m184 168h288v256h-288z" fill="#f8bc1e"/><path d="m376 296h48v48h-48z" fill="#f9da62"/><path d="m472 304h-12a12 12 0 0 0 -12 12v20.305a63.7 63.7 0 0 1 -63.695 63.695h-36.305a12 12 0 0 0 -12 12v12h136z" fill="#f5a922"/><path d="m432 384h16v16h-16z" fill="#f79726"/><path d="m376 168h48v48h-48z" fill="#f9da62"/><path d="m472 176h-12a12 12 0 0 0 -12 12v20.305a63.7 63.7 0 0 1 -63.695 63.695h-36.305a12 12 0 0 0 -12 12v12h136z" fill="#f5a922"/><path d="m432 256h16v16h-16z" fill="#f79726"/><path d="m232 296h48v48h-48z" fill="#f9da62"/><path d="m328 304h-12a12 12 0 0 0 -12 12v20.305a63.7 63.7 0 0 1 -63.695 63.695h-36.305a12 12 0 0 0 -12 12v12h136z" fill="#f5a922"/><path d="m288 384h16v16h-16z" fill="#f79726"/><path d="m232 168h48v48h-48z" fill="#f9da62"/><path d="m328 176h-12a12 12 0 0 0 -12 12v20.305a63.7 63.7 0 0 1 -63.695 63.695h-36.305a12 12 0 0 0 -12 12v12h136z" fill="#f5a922"/><path d="m288 256h16v16h-16z" fill="#f79726"/><path d="m56 440h48v48h-48z" fill="#a17835"/><path d="m56 440h48v32h-48z" fill="#8b6639"/><path d="m232 440h48v48h-48z" fill="#a17835"/><path d="m232 440h48v32h-48z" fill="#8b6639"/><path d="m408 440h48v48h-48z" fill="#a17835"/><path d="m408 440h48v32h-48z" fill="#8b6639"/><path d="m24 424h464v32h-464z" fill="#a17835"/></g></svg>