<?xml version="1.0" encoding="iso-8859-1"?>
<!-- Generator: Adobe Illustrator 19.0.0, SVG Export Plug-In . SVG Version: 6.00 Build 0)  -->
<svg version="1.1" id="Capa_1" xmlns="http://www.w3.org/2000/svg" xmlns:xlink="http://www.w3.org/1999/xlink" x="0px" y="0px"
	 viewBox="0 0 512 512" style="enable-background:new 0 0 512 512;" xml:space="preserve">
<g>
	<g>
		<path d="M489.5,57.5h-73.833c-4.142,0-7.5,3.358-7.5,7.5c0,4.142,3.358,7.5,7.5,7.5H489.5c4.136,0,7.5,3.364,7.5,7.5
			c0,2-0.779,3.878-2.213,5.306c-1.409,1.415-3.287,2.194-5.287,2.194h-304v-15H384c4.142,0,7.5-3.358,7.5-7.5
			c0-4.142-3.358-7.5-7.5-7.5H185.5V45c0-9.649-7.851-17.5-17.5-17.5H98c-9.649,0-17.5,7.851-17.5,17.5v12.5h-58
			c-6.017,0-11.668,2.346-15.894,6.587C2.346,68.332,0,73.983,0,80c0,12.407,10.093,22.5,22.5,22.5h58V115
			c0,9.649,7.851,17.5,17.5,17.5h70c9.649,0,17.5-7.851,17.5-17.5v-12.5h304c6.017,0,11.668-2.346,15.894-6.587
			C509.654,91.668,512,86.017,512,80C512,67.593,501.907,57.5,489.5,57.5z M80.5,87.5h-58c-4.136,0-7.5-3.364-7.5-7.5
			c0-2,0.779-3.878,2.213-5.306C18.622,73.279,20.5,72.5,22.5,72.5h58V87.5z M170.5,115c0,1.355-1.145,2.5-2.5,2.5H98
			c-1.355,0-2.5-1.145-2.5-2.5V45c0-1.355,1.145-2.5,2.5-2.5h70c1.355,0,2.5,1.145,2.5,2.5V115z"/>
	</g>
</g>
<g>
	<g>
		<path d="M489.5,271.5H376.727v-32H380c9.649,0,17.5-7.851,17.5-17.5v-12.5h92c6.017,0,11.668-2.346,15.894-6.587
			c4.26-4.245,6.606-9.896,6.606-15.913c0-12.407-10.093-22.5-22.5-22.5h-92V152c0-9.649-7.851-17.5-17.5-17.5h-70
			c-9.649,0-17.5,7.851-17.5,17.5v12.5h-270c-6.017,0-11.668,2.346-15.894,6.587C2.346,175.332,0,180.983,0,187
			c0,12.407,10.093,22.5,22.5,22.5h41.375c4.142,0,7.5-3.358,7.5-7.5c0-4.142-3.358-7.5-7.5-7.5H22.5c-4.136,0-7.5-3.364-7.5-7.5
			c0-2,0.779-3.878,2.213-5.306c1.409-1.415,3.287-2.194,5.287-2.194h270v15H96.25c-4.142,0-7.5,3.358-7.5,7.5
			c0,4.142,3.358,7.5,7.5,7.5H292.5V222c0,9.649,7.851,17.5,17.5,17.5h8.934l-0.137,32H217.776V259c0-9.649-7.851-17.5-17.5-17.5
			h-70c-9.649,0-17.5,7.851-17.5,17.5v12.5H22.5c-6.017,0-11.668,2.346-15.894,6.587C2.346,282.332,0,287.983,0,294
			c0,12.407,10.093,22.5,22.5,22.5h90.276V329c0,9.649,7.851,17.5,17.5,17.5h70c9.649,0,17.5-7.851,17.5-17.5v-12.5h63.078
			c-2.76,4.642-4.353,10.06-4.353,15.817v19.517c0,4.142,3.358,7.5,7.5,7.5c4.142,0,7.5-3.358,7.5-7.5v-19.517
			c0-8.367,6.452-15.323,14.499-15.817h2.115c3.257,0.264,5.783,1.679,7.853,4.369c2.559,3.326,6.953,4.656,10.932,3.311
			c3.999-1.351,6.697-5.092,6.715-9.308l0.025-5.822c0-0.017,0.003-0.033,0.003-0.05c0-0.014-0.002-0.028-0.002-0.042l0.328-76.876
			c0-0.027,0.004-0.054,0.004-0.082c0-0.023-0.003-0.046-0.003-0.069l0.101-23.587c0.007-7.634,6.211-13.844,13.83-13.844
			c3.694,0,7.166,1.439,9.777,4.053c2.613,2.616,4.052,6.094,4.052,9.796v68.416c0,12.89,10.48,23.376,23.362,23.376h43.759
			c17.453,0,31.652,14.214,31.652,31.687v98.987c0,4.79-3.89,8.686-8.672,8.686h-0.845h-120h-1.35
			c-21.027,0-38.133-17.125-38.133-38.173V384c0-4.142-3.358-7.5-7.5-7.5c-4.142,0-7.5,3.358-7.5,7.5v17.327
			c0,27.237,20.574,49.744,46.983,52.806v19.035c0,6.249,5.083,11.332,11.333,11.332h112.335c6.249,0,11.332-5.083,11.332-11.332
			v-19.627c9.822-2.885,17.017-11.978,17.017-22.727v-98.987c0-5.368-0.921-10.523-2.595-15.327H489.5
			c6.017,0,11.668-2.346,15.894-6.587c4.26-4.245,6.606-9.896,6.606-15.913C512,281.593,501.907,271.5,489.5,271.5z M397.5,179.5h92
			c4.136,0,7.5,3.364,7.5,7.5c0,2-0.779,3.878-2.213,5.306c-1.409,1.415-3.287,2.194-5.287,2.194h-92V179.5z M112.776,301.5H22.5
			c-4.136,0-7.5-3.364-7.5-7.5c0-2,0.779-3.878,2.213-5.306c1.409-1.415,3.287-2.194,5.287-2.194h90.276V301.5z M202.776,329
			c0,1.355-1.145,2.5-2.5,2.5h-70c-1.355,0-2.5-1.145-2.5-2.5v-19.923c0-0.026,0.004-0.051,0.004-0.077s-0.004-0.051-0.004-0.077
			v-29.845c0-0.026,0.004-0.051,0.004-0.077s-0.004-0.051-0.004-0.077V259c0-1.355,1.145-2.5,2.5-2.5h70c1.355,0,2.5,1.145,2.5,2.5
			V329z M318.67,301.5h-10.257c-0.695-0.035-1.395-0.054-2.107-0.041c-0.3,0.006-0.597,0.026-0.895,0.041h-87.635v-15h100.958
			L318.67,301.5z M368.286,187.952c-5.445-5.451-12.686-8.452-20.389-8.452c-15.881,0-28.814,12.933-28.83,28.805l-0.069,16.195H310
			c-1.355,0-2.5-1.145-2.5-2.5v-70c0-1.355,1.145-2.5,2.5-2.5h70c1.355,0,2.5,1.145,2.5,2.5v70c0,1.355-1.145,2.5-2.5,2.5h-3.273
			v-16.151C376.727,200.643,373.729,193.399,368.286,187.952z M443.483,469.5h-105v-15h105V469.5z M494.787,299.306
			c-1.409,1.415-3.287,2.194-5.287,2.194h-25.227c-6.238-7.287-14.67-12.633-24.268-15H489.5c4.136,0,7.5,3.364,7.5,7.5
			C497,296,496.221,297.878,494.787,299.306z"/>
	</g>
</g>
<g>
</g>
<g>
</g>
<g>
</g>
<g>
</g>
<g>
</g>
<g>
</g>
<g>
</g>
<g>
</g>
<g>
</g>
<g>
</g>
<g>
</g>
<g>
</g>
<g>
</g>
<g>
</g>
<g>
</g>
</svg>
