<svg id="Capa_1" enable-background="new 0 0 512 512" height="512" viewBox="0 0 512 512" width="512" xmlns="http://www.w3.org/2000/svg"><g><path d="m502 0h-61.652c-5.523 0-10 4.478-10 10v61.652c0 5.522 4.477 10 10 10h61.652c5.523 0 10-4.478 10-10v-61.652c0-5.522-4.477-10-10-10zm-10 61.652h-41.652v-41.652h41.652z"/><path d="m71.652 0h-61.652c-5.523 0-10 4.478-10 10v61.652c0 5.522 4.477 10 10 10h61.652c5.523 0 10-4.478 10-10v-61.652c0-5.522-4.477-10-10-10zm-10 61.652h-41.652v-41.652h41.652z"/><path d="m113.156 50.826h20.822c5.523 0 10-4.478 10-10s-4.477-10-10-10h-20.822c-5.523 0-10 4.478-10 10s4.477 10 10 10z"/><path d="m179.373 50.826h20.822c5.523 0 10-4.478 10-10s-4.477-10-10-10h-20.822c-5.523 0-10 4.478-10 10s4.477 10 10 10z"/><path d="m245.589 50.826h20.822c5.523 0 10-4.478 10-10s-4.477-10-10-10h-20.822c-5.523 0-10 4.478-10 10s4.477 10 10 10z"/><path d="m311.805 50.826h20.822c5.523 0 10-4.478 10-10s-4.477-10-10-10h-20.822c-5.523 0-10 4.478-10 10s4.477 10 10 10z"/><path d="m398.844 30.826h-20.822c-5.523 0-10 4.478-10 10s4.477 10 10 10h20.822c5.523 0 10-4.478 10-10s-4.477-10-10-10z"/><path d="m502 430.348h-61.652c-5.523 0-10 4.478-10 10v61.652c0 5.522 4.477 10 10 10h61.652c5.523 0 10-4.478 10-10v-61.652c0-5.523-4.477-10-10-10zm-10 61.652h-41.652v-41.652h41.652z"/><path d="m71.652 430.348h-61.652c-5.523 0-10 4.478-10 10v61.652c0 5.522 4.477 10 10 10h61.652c5.523 0 10-4.478 10-10v-61.652c0-5.523-4.477-10-10-10zm-10 61.652h-41.652v-41.652h41.652z"/><path d="m133.979 461.174h-20.822c-5.523 0-10 4.478-10 10s4.477 10 10 10h20.822c5.523 0 10-4.478 10-10s-4.478-10-10-10z"/><path d="m200.195 461.174h-20.822c-5.523 0-10 4.478-10 10s4.477 10 10 10h20.822c5.523 0 10-4.478 10-10s-4.477-10-10-10z"/><path d="m266.411 461.174h-20.822c-5.523 0-10 4.478-10 10s4.477 10 10 10h20.822c5.523 0 10-4.478 10-10s-4.477-10-10-10z"/><path d="m332.627 461.174h-20.822c-5.523 0-10 4.478-10 10s4.477 10 10 10h20.822c5.523 0 10-4.478 10-10s-4.477-10-10-10z"/><path d="m398.844 461.174h-20.822c-5.523 0-10 4.478-10 10s4.477 10 10 10h20.822c5.523 0 10-4.478 10-10s-4.477-10-10-10z"/><path d="m471.174 143.979c5.523 0 10-4.478 10-10v-20.822c0-5.522-4.477-10-10-10s-10 4.478-10 10v20.822c0 5.522 4.477 10 10 10z"/><path d="m461.174 200.195c0 5.522 4.477 10 10 10s10-4.478 10-10v-20.822c0-5.522-4.477-10-10-10s-10 4.478-10 10z"/><path d="m461.174 266.411c0 5.522 4.477 10 10 10s10-4.478 10-10v-20.822c0-5.522-4.477-10-10-10s-10 4.478-10 10z"/><path d="m461.174 332.627c0 5.522 4.477 10 10 10s10-4.478 10-10v-20.822c0-5.522-4.477-10-10-10s-10 4.478-10 10z"/><path d="m461.174 398.844c0 5.522 4.477 10 10 10s10-4.478 10-10v-20.822c0-5.522-4.477-10-10-10s-10 4.478-10 10z"/><path d="m40.826 143.979c5.523 0 10-4.478 10-10v-20.822c0-5.522-4.477-10-10-10s-10 4.478-10 10v20.822c0 5.522 4.477 10 10 10z"/><path d="m30.826 200.195c0 5.522 4.477 10 10 10s10-4.478 10-10v-20.822c0-5.522-4.477-10-10-10s-10 4.478-10 10z"/><path d="m30.826 266.411c0 5.522 4.477 10 10 10s10-4.478 10-10v-20.822c0-5.522-4.477-10-10-10s-10 4.478-10 10z"/><path d="m30.826 332.627c0 5.522 4.477 10 10 10s10-4.478 10-10v-20.822c0-5.522-4.477-10-10-10s-10 4.478-10 10z"/><path d="m30.826 398.844c0 5.522 4.477 10 10 10s10-4.478 10-10v-20.822c0-5.522-4.477-10-10-10s-10 4.478-10 10z"/><path d="m333.417 349.407h-42.619v-186.815h28.023v22.879c0 5.522 4.477 10 10 10h49.596c5.523 0 10-4.478 10-10v-82.475c0-5.522-4.477-10-10-10h-244.834c-5.523 0-10 4.478-10 10v82.475c0 5.522 4.477 10 10 10h49.596c5.523 0 10-4.478 10-10v-22.879h28.023v186.815h-42.619c-5.523 0-10 4.478-10 10v49.597c0 5.522 4.477 10 10 10h154.833c5.523 0 10-4.478 10-10v-49.597c.001-5.522-4.477-10-9.999-10zm-10 49.597h-134.834v-29.597h42.619c5.523 0 10-4.478 10-10v-206.815c0-5.522-4.477-10-10-10h-48.023c-5.523 0-10 4.478-10 10v22.879h-29.596v-62.475h224.833v62.475h-29.596v-22.879c0-5.522-4.477-10-10-10h-48.023c-5.523 0-10 4.478-10 10v206.815c0 5.522 4.477 10 10 10h42.619v29.597z"/></g></svg>